<?xml version="1.0" standalone="no"?>
<!DOCTYPE svg PUBLIC "-//W3C//DTD SVG 20010904//EN"
 "http://www.w3.org/TR/2001/REC-SVG-20010904/DTD/svg10.dtd">
<svg version="1.0" xmlns="http://www.w3.org/2000/svg"
 width="1280.000000pt" height="1168.000000pt" viewBox="0 0 1280.000000 1168.000000"
 preserveAspectRatio="xMidYMid meet">
<metadata>
Created by potrace 1.15, written by Peter Selinger 2001-2017
</metadata>
<g transform="translate(0.000000,1168.000000) scale(0.100000,-0.100000)"
fill="#000000" stroke="none">
<path d="M5560 11674 c-790 -52 -1422 -201 -2075 -489 -881 -389 -1666 -1004
-2268 -1778 -358 -459 -670 -1027 -870 -1582 -168 -466 -271 -927 -324 -1455
-24 -246 -24 -815 1 -1060 73 -737 248 -1366 555 -2005 812 -1687 2407 -2895
4246 -3215 381 -66 601 -84 1015 -84 347 0 457 6 760 45 1664 213 3175 1154
4107 2559 542 817 852 1698 955 2715 20 200 17 876 -5 1080 -28 255 -82 593
-118 727 l-9 37 -258 -156 c-141 -85 -260 -158 -265 -162 -4 -4 -1 -43 7 -87
54 -290 78 -566 78 -914 1 -388 -26 -680 -98 -1042 -249 -1267 -972 -2404
-2025 -3190 -255 -190 -492 -334 -799 -487 -623 -309 -1264 -482 -1975 -532
-213 -15 -705 -6 -905 15 -625 69 -1200 234 -1755 506 -553 271 -1009 601
-1445 1046 -313 319 -540 612 -772 997 -96 159 -277 523 -349 702 -182 454
-299 925 -356 1435 -26 236 -26 844 0 1080 119 1071 513 2004 1197 2830 133
161 499 527 660 660 341 282 644 480 1030 673 733 367 1503 547 2340 547 594
0 1117 -84 1665 -265 445 -148 842 -342 1245 -611 279 -185 469 -338 741 -594
l136 -128 239 144 c131 80 245 149 253 153 41 24 -437 471 -774 723 -865 650
-1859 1033 -2965 1143 -145 15 -694 27 -820 19z"/>
<path d="M11510 10180 c-172 -17 -250 -49 -527 -213 -156 -93 -221 -136 -217
-146 4 -11 1209 -2016 1220 -2030 2 -2 103 57 226 130 202 121 232 143 318
229 111 111 175 211 219 345 69 207 67 410 -6 606 -26 72 -333 595 -419 715
-177 249 -502 394 -814 364z"/>
<path d="M9185 8884 c-2089 -1259 -2579 -1555 -2792 -1683 -106 -64 -193 -120
-193 -125 0 -5 275 -465 612 -1023 385 -638 616 -1012 624 -1009 8 3 3876
2332 4382 2638 l32 20 -17 29 c-207 350 -1211 2003 -1218 2006 -6 2 -649 -382
-1430 -853z"/>
<path d="M2740 8060 l0 -930 923 0 c508 0 926 2 928 4 2 2 3 421 1 930 l-2
926 -925 0 -925 0 0 -930z m1758 3 l-3 -828 -828 0 -827 0 -3 828 -2 827 833
0 832 0 -2 -827z"/>
<path d="M5997 6898 c-436 -741 -840 -1435 -840 -1443 0 -6 78 -140 173 -297
l173 -287 61 5 c34 3 374 18 756 34 861 37 960 42 960 48 0 5 -1210 2013
-1220 2025 -4 5 -32 -33 -63 -85z"/>
<path d="M2740 5865 l0 -925 925 0 925 0 2 925 3 925 -927 0 -928 0 0 -925z
m1755 0 l0 -830 -828 0 -827 0 0 828 c0 455 0 829 0 832 0 3 372 4 828 2 l827
-2 0 -830z"/>
<path d="M4965 5135 c-92 -157 -166 -287 -164 -289 5 -4 653 25 657 29 2 2
-308 523 -323 543 -1 2 -78 -126 -170 -283z"/>
<path d="M2740 3665 l0 -925 925 0 925 0 2 481 3 481 95 30 c142 44 502 132
700 172 415 84 828 134 1273 155 165 8 202 13 218 27 26 23 25 85 -1 109 -18
17 -35 18 -193 12 -646 -24 -1355 -137 -1977 -317 -58 -16 -108 -30 -113 -30
-4 0 -6 164 -5 365 l3 365 -927 0 -928 0 0 -925z m1755 496 l0 -333 -165 -58
c-91 -32 -214 -78 -275 -103 -218 -90 -308 -83 -419 31 -62 64 -120 147 -203
292 -37 63 -73 123 -81 133 -34 40 -122 3 -122 -51 0 -13 32 -83 72 -156 223
-410 367 -536 549 -482 31 8 107 37 170 64 92 40 458 172 475 172 2 0 3 -188
2 -417 l-3 -418 -828 0 -827 0 0 828 c0 455 0 829 0 832 0 3 372 4 828 3 l827
-3 0 -334z"/>
</g>
</svg>
